<svg xmlns="http://www.w3.org/2000/svg" xmlns:xlink="http://www.w3.org/1999/xlink" viewBox="0 0 300 300">
  <defs>
    <style>
      .cls-1 {
        fill: none;
      }

      .cls-2 {
        clip-path: url(#clip-path);
      }

      .cls-3 {
        fill: #ef7a6a;
      }

      .cls-3, .cls-4 {
        stroke: #fff;
        stroke-miterlimit: 10;
      }

      .cls-4 {
        fill: #f28e81;
      }

      .cls-5 {
        fill: #bfe3e8;
      }

      .cls-6 {
        clip-path: url(#clip-path-2);
      }

      .cls-7 {
        fill: #12a3d6;
      }

      .cls-8 {
        fill: #0d4959;
      }
    </style>
    <clipPath id="clip-path">
      <path class="cls-1" d="M-78.73107,193.68693c-3.95613-1.88921-9.16174-7.60169-12.06435-10.88713-14.05135-15.90444-26.86653-21.65175-35.08513-23.68866,4.46794.10674,10.46475,1.12437,18.36807,4.09547,21.89125,8.22955,38.34716,7.0115,38.34716,7.0115,19.645-.4718,26.30765-23.31819,26.30765-23.31819-5.44321,6.169-14.27661,9.59988-14.27661,9.59988A49.72274,49.72274,0,0,1-96.272,149.36144c-26.64235-15.87207-36.16114-18.542-39.15-18.92708,39.0434-47.0318,14.38253-82.32219,14.38253-82.32219-16.18877-25.32673-47.86-25.27177-47.86-25.27177-25.10725-1.31232-60.55262,21.00518-58.28705,55.79552,1.33209,20.45559,15.5575,45.39655,21.1803,54.53487-6.03811,2.51766-15.6,7.26393-30.58423,16.19065a49.72257,49.72257,0,0,1-39.13766,7.13836s-8.83351-3.4309-14.27673-9.59988c0,0,6.66268,22.84639,26.30765,23.31819,0,0,8.7496.62868,21.94738-2.19849a94.96251,94.96251,0,0,0-14.65308,13.013c-2.98134,3.21412-8.32393,8.79879-12.32467,10.59139-7.11835,3.18964-16.80733,3.41277-30.28708-4.68814,0,0,23.263,28.44506,45.9738,11.39883,2.23286-1.676,7.75951-6.4925,9.89857-8.28663,7.29665-6.11943,13.411-11.93277,30.56682-13.53812-5.28139,14.00451-22.67527,46.04794-69.17136,36.07217,0,0,17.5604,19.05807,49.8605,10.25986,0,0,16.76461-5.513,31.56692-26.23668-1.42471,5.55984-2.38456,10.1909-2.38456,10.1909-8.36912,51.36312,23.138,51.36312,23.138,51.36312,21.3453,0,26.91232-20.02016,26.91232-20.02016-10.83064,12.14332-21.86382,9.18963-21.86382,9.18963-12.26889-3.77431-14.27661-16.87735-14.27661-16.87735-3.72358-19.006,9.76264-37.20878,15.04792-43.46709a46.12408,46.12408,0,0,0,6.32351,29.57579,45.16164,45.16164,0,0,0,10.10557,10.32365,65.13652,65.13652,0,0,1,14.50939,12.73233c.29351.34164.57514.69776.84534,1.06459a20.85868,20.85868,0,0,1-.1484,25.27672c-3.46044,4.51773-9.20669,9.08948-18.74785,11.89382,0,0,5.13229,2.38278,12.67525.84792A28.92311,28.92311,0,0,0-125.612,245.23835c-1.26806-6.66044-4.78923-14.5201-12.30018-23.345,0,0-15.89173-15.60152-15.25411-33.9483,15.78005,27.90065,37.07933,34.897,37.07933,34.897,32.30022,8.79821,49.86062-10.25986,49.86062-10.25986-45.79939,9.82619-63.36462-21.12229-68.92858-35.43655,17.60877,1.94582,23.649,7.97252,30.88422,14.34557,2.09505,1.84531,7.50319,6.79448,9.69486,8.52411,22.29079,17.59182,46.23659-10.28093,46.23659-10.28093C-62.01142,197.50608-71.69215,197.04816-78.73107,193.68693Z"/>
    </clipPath>
    <clipPath id="clip-path-2">
      <path class="cls-1" d="M242.2051,193.2679c-3.95613-1.88921-9.16174-7.60169-12.06435-10.88713-14.05135-15.90444-26.86653-21.65175-35.08513-23.68866,4.46794.10674,10.46475,1.12437,18.36807,4.09547,21.89125,8.22955,38.34716,7.0115,38.34716,7.0115,19.645-.4718,26.30765-23.31819,26.30765-23.31819-5.44321,6.169-14.27661,9.59989-14.27661,9.59989a49.72276,49.72276,0,0,1-39.13777-7.13837c-26.64235-15.87207-36.16114-18.542-39.15-18.92708,39.0434-47.0318,14.38253-82.32219,14.38253-82.32219-16.18877-25.32673-47.86-25.27177-47.86-25.27177-25.10725-1.31232-60.55262,21.00519-58.287,55.79552,1.33209,20.45559,15.5575,45.39655,21.1803,54.53487-6.03811,2.51766-15.6,7.26393-30.58423,16.19065A49.72259,49.72259,0,0,1,45.208,156.08078s-8.83351-3.4309-14.27673-9.59989c0,0,6.66268,22.84639,26.30765,23.31819,0,0,8.7496.62868,21.94738-2.19849a94.96251,94.96251,0,0,0-14.65308,13.013c-2.98134,3.21412-8.32393,8.79879-12.32467,10.59139-7.11835,3.18964-16.80733,3.41277-30.28708-4.68814,0,0,23.263,28.44506,45.9738,11.39883,2.23286-1.676,7.75951-6.4925,9.89857-8.28663,7.29665-6.11943,13.411-11.93277,30.56682-13.53812-5.28139,14.00451-22.67527,46.04794-69.17136,36.07217,0,0,17.5604,19.05807,49.8605,10.25986,0,0,16.76461-5.513,31.56692-26.23668-1.42471,5.55984-2.38456,10.1909-2.38456,10.1909-8.36912,51.36312,23.138,51.36312,23.138,51.36312,21.3453,0,26.91232-20.02016,26.91232-20.02016-10.83064,12.14332-21.86382,9.18963-21.86382,9.18963-12.26889-3.7743-14.27661-16.87735-14.27661-16.87735-3.72358-19.00605,9.76264-37.20878,15.04792-43.46709a46.12408,46.12408,0,0,0,6.32351,29.57579,45.16145,45.16145,0,0,0,10.10557,10.32365,65.13652,65.13652,0,0,1,14.50939,12.73233c.29351.34165.57514.69776.84534,1.06459a20.85868,20.85868,0,0,1-.1484,25.27672c-3.46044,4.51773-9.20669,9.08948-18.74785,11.89382,0,0,5.13229,2.38278,12.67525.84792a28.9231,28.9231,0,0,0,22.57135-33.46083c-1.26806-6.66044-4.78923-14.5201-12.30018-23.345,0,0-15.89173-15.60152-15.25411-33.9483,15.78,27.90065,37.07933,34.897,37.07933,34.897,32.30022,8.79821,49.86062-10.25986,49.86062-10.25986-45.79939,9.82619-63.36462-21.12229-68.92858-35.43655,17.60877,1.94582,23.649,7.97252,30.88422,14.34557,2.09505,1.84532,7.50319,6.79448,9.69486,8.52411,22.29079,17.59183,46.23659-10.28093,46.23659-10.28093C258.92475,197.08705,249.244,196.62913,242.2051,193.2679Z"/>
    </clipPath>
  </defs>
  <g id="Layer_17" data-name="Layer 17">
    <g class="cls-2">
      <g>
        <g>
          <g>
            <circle class="cls-3" cx="-5.75359" cy="143.37852" r="6.63906"/>
            <circle class="cls-3" cx="4.02224" cy="128.31941" r="6.63906"/>
          </g>
          <g>
            <circle class="cls-4" cx="0.95796" cy="169.28555" r="6.63906"/>
            <circle class="cls-4" cx="10.73378" cy="154.22644" r="6.63906"/>
            <circle class="cls-4" cx="21.00106" cy="139.48637" r="6.63906"/>
            <circle class="cls-4" cx="35.78074" cy="149.0808" r="6.63906"/>
            <circle class="cls-4" cx="50.63735" cy="158.72517" r="6.63906"/>
          </g>
        </g>
        <g>
          <g>
            <circle class="cls-3" cx="-3.24734" cy="209.36605" r="6.63906"/>
            <circle class="cls-3" cx="6.03703" cy="193.98792" r="6.63906"/>
            <circle class="cls-3" cx="15.81286" cy="178.92881" r="6.63906"/>
            <circle class="cls-3" cx="26.08014" cy="164.18874" r="6.63906"/>
            <circle class="cls-3" cx="40.85982" cy="173.78317" r="6.63906"/>
          </g>
          <g>
            <circle class="cls-4" cx="-6.31162" cy="250.33219" r="6.63906"/>
            <circle class="cls-4" cx="3.4642" cy="235.27308" r="6.63906"/>
            <circle class="cls-4" cx="12.74858" cy="219.89494" r="6.63906"/>
            <circle class="cls-4" cx="22.5244" cy="204.83584" r="6.63906"/>
            <circle class="cls-4" cx="32.79168" cy="190.09576" r="6.63906"/>
          </g>
        </g>
      </g>
    </g>
  </g>
  <g id="Layer_18" data-name="Layer 18">
    <rect class="cls-5" x="-4.82516" y="-4.24419" width="309.65032" height="309.65032"/>
    <g class="cls-6">
      <g>
        <g>
          <g>
            <polygon class="cls-7" points="138.553 3.136 131.82 9.868 134.284 19.065 143.481 21.529 150.214 14.797 147.749 5.6 138.553 3.136"/>
            <polygon class="cls-8" points="154.454 -1.105 147.722 5.627 150.186 14.824 159.383 17.288 166.116 10.556 163.651 1.359 154.454 -1.105"/>
          </g>
          <g>
            <polygon class="cls-7" points="170.335 -5.325 163.602 1.408 166.067 10.604 175.263 13.069 181.996 6.336 179.532 -2.86 170.335 -5.325"/>
            <polygon class="cls-8" points="186.237 -9.566 179.504 -2.833 181.969 6.364 191.165 8.828 197.898 2.095 195.434 -7.101 186.237 -9.566"/>
          </g>
        </g>
        <g>
          <polygon class="cls-8" points="102.918 31.259 96.186 37.991 98.65 47.188 107.847 49.652 114.579 42.92 112.115 33.723 102.918 31.259"/>
          <g>
            <polygon class="cls-7" points="118.798 27.039 112.066 33.772 114.53 42.969 123.727 45.433 130.459 38.7 127.995 29.504 118.798 27.039"/>
            <polygon class="cls-8" points="134.7 22.798 127.968 29.531 130.432 38.728 139.629 41.192 146.361 34.459 143.897 25.263 134.7 22.798"/>
          </g>
          <g>
            <polygon class="cls-7" points="150.581 18.579 143.848 25.312 146.313 34.508 155.509 36.973 162.242 30.24 159.778 21.043 150.581 18.579"/>
            <polygon class="cls-8" points="166.483 14.338 159.75 21.071 162.215 30.267 171.411 32.732 178.144 25.999 175.68 16.802 166.483 14.338"/>
          </g>
          <g>
            <polygon class="cls-7" points="182.363 10.119 175.631 16.851 178.095 26.048 187.292 28.512 194.024 21.78 191.56 12.583 182.363 10.119"/>
            <polygon class="cls-8" points="198.265 5.878 191.533 12.61 193.997 21.807 203.194 24.271 209.926 17.539 207.462 8.342 198.265 5.878"/>
          </g>
        </g>
        <g>
          <polygon class="cls-8" points="83.821 54.112 77.088 60.844 79.553 70.041 88.749 72.505 95.482 65.773 93.018 56.576 83.821 54.112"/>
          <g>
            <polygon class="cls-7" points="99.701 49.892 92.969 56.625 95.433 65.822 104.63 68.286 111.362 61.553 108.898 52.357 99.701 49.892"/>
            <polygon class="cls-8" points="115.603 45.651 108.871 52.384 111.335 61.581 120.532 64.045 127.264 57.312 124.8 48.116 115.603 45.651"/>
          </g>
          <g>
            <polygon class="cls-7" points="131.484 41.432 124.751 48.164 127.215 57.361 136.412 59.825 143.145 53.093 140.68 43.896 131.484 41.432"/>
            <polygon class="cls-8" points="147.386 37.191 140.653 43.923 143.117 53.12 152.314 55.585 159.047 48.852 156.582 39.655 147.386 37.191"/>
          </g>
          <g>
            <polygon class="cls-7" points="163.266 32.972 156.533 39.704 158.998 48.901 168.194 51.365 174.927 44.633 172.463 35.436 163.266 32.972"/>
            <polygon class="cls-8" points="179.168 28.731 172.435 35.463 174.9 44.66 184.096 47.124 190.829 40.392 188.365 31.195 179.168 28.731"/>
          </g>
          <g>
            <polygon class="cls-7" points="195.048 24.511 188.316 31.244 190.78 40.441 199.977 42.905 206.709 36.172 204.245 26.976 195.048 24.511"/>
            <polygon class="cls-8" points="210.95 20.27 204.218 27.003 206.682 36.2 215.879 38.664 222.611 31.931 220.147 22.735 210.95 20.27"/>
          </g>
        </g>
        <g>
          <polygon class="cls-8" points="64.067 78.015 57.334 84.748 59.799 93.945 68.995 96.409 75.728 89.676 73.264 80.48 64.067 78.015"/>
          <g>
            <polygon class="cls-7" points="79.947 73.796 73.215 80.529 75.679 89.725 84.876 92.19 91.608 85.457 89.144 76.26 79.947 73.796"/>
            <polygon class="cls-8" points="95.849 69.555 89.117 76.288 91.581 85.484 100.778 87.949 107.51 81.216 105.046 72.019 95.849 69.555"/>
          </g>
          <g>
            <polygon class="cls-7" points="111.73 65.336 104.997 72.068 107.461 81.265 116.658 83.729 123.391 76.997 120.926 67.8 111.73 65.336"/>
            <polygon class="cls-8" points="127.631 61.095 120.899 67.827 123.363 77.024 132.56 79.488 139.293 72.756 136.828 63.559 127.631 61.095"/>
          </g>
          <g>
            <polygon class="cls-7" points="143.512 56.875 136.779 63.608 139.244 72.805 148.44 75.269 155.173 68.536 152.709 59.34 143.512 56.875"/>
            <polygon class="cls-8" points="159.414 52.634 152.681 59.367 155.146 68.564 164.342 71.028 171.075 64.295 168.611 55.099 159.414 52.634"/>
          </g>
          <g>
            <polygon class="cls-7" points="175.294 48.415 168.562 55.148 171.026 64.344 180.223 66.809 186.955 60.076 184.491 50.879 175.294 48.415"/>
            <polygon class="cls-8" points="191.196 44.174 184.464 50.907 186.928 60.103 196.125 62.568 202.857 55.835 200.393 46.638 191.196 44.174"/>
          </g>
          <g>
            <polygon class="cls-7" points="207.077 39.955 200.344 46.687 202.808 55.884 212.005 58.348 218.738 51.616 216.273 42.419 207.077 39.955"/>
            <polygon class="cls-8" points="222.979 35.714 216.246 42.446 218.71 51.643 227.907 54.107 234.64 47.375 232.175 38.178 222.979 35.714"/>
          </g>
        </g>
        <g>
          <g>
            <g>
              <polygon class="cls-7" points="29.067 105.109 22.335 111.842 24.799 121.039 33.996 123.503 40.728 116.77 38.264 107.574 29.067 105.109"/>
              <polygon class="cls-8" points="44.969 100.868 38.237 107.601 40.701 116.798 49.898 119.262 56.63 112.529 54.166 103.333 44.969 100.868"/>
            </g>
            <g>
              <polygon class="cls-7" points="60.85 96.649 54.117 103.382 56.582 112.578 65.778 115.043 72.511 108.31 70.047 99.113 60.85 96.649"/>
              <polygon class="cls-8" points="76.752 92.408 70.019 99.141 72.484 108.337 81.68 110.802 88.413 104.069 85.949 94.872 76.752 92.408"/>
            </g>
            <g>
              <polygon class="cls-7" points="92.632 88.189 85.9 94.921 88.364 104.118 97.561 106.582 104.293 99.85 101.829 90.653 92.632 88.189"/>
              <polygon class="cls-8" points="108.534 83.948 101.802 90.68 104.266 99.877 113.463 102.341 120.195 95.609 117.731 86.412 108.534 83.948"/>
            </g>
            <g>
              <polygon class="cls-7" points="124.415 79.728 117.682 86.461 120.146 95.658 129.343 98.122 136.076 91.389 133.611 82.193 124.415 79.728"/>
              <polygon class="cls-8" points="140.317 75.487 133.584 82.22 136.048 91.417 145.245 93.881 151.978 87.148 149.513 77.952 140.317 75.487"/>
            </g>
            <g>
              <polygon class="cls-7" points="156.197 71.268 149.464 78 151.929 87.197 161.125 89.661 167.858 82.929 165.394 73.732 156.197 71.268"/>
              <polygon class="cls-8" points="172.099 67.027 165.366 73.76 167.831 82.956 177.027 85.421 183.76 78.688 181.296 69.491 172.099 67.027"/>
            </g>
            <g>
              <polygon class="cls-7" points="187.979 62.808 181.247 69.54 183.711 78.737 192.908 81.201 199.64 74.469 197.176 65.272 187.979 62.808"/>
              <polygon class="cls-8" points="203.881 58.567 197.149 65.299 199.613 74.496 208.81 76.96 215.542 70.228 213.078 61.031 203.881 58.567"/>
            </g>
            <g>
              <polygon class="cls-7" points="219.762 54.347 213.029 61.08 215.493 70.277 224.69 72.741 231.423 66.008 228.958 56.812 219.762 54.347"/>
              <polygon class="cls-8" points="235.664 50.106 228.931 56.839 231.395 66.036 240.592 68.5 247.325 61.767 244.86 52.571 235.664 50.106"/>
            </g>
          </g>
          <g>
            <g>
              <polygon class="cls-7" points="9.313 129.013 2.581 135.746 5.045 144.942 14.242 147.407 20.974 140.674 18.51 131.477 9.313 129.013"/>
              <polygon class="cls-8" points="25.215 124.772 18.483 131.505 20.947 140.701 30.144 143.166 36.876 136.433 34.412 127.236 25.215 124.772"/>
            </g>
            <g>
              <polygon class="cls-7" points="41.096 120.553 34.363 127.285 36.828 136.482 46.024 138.946 52.757 132.214 50.293 123.017 41.096 120.553"/>
              <polygon class="cls-8" points="56.998 116.312 50.265 123.044 52.73 132.241 61.926 134.705 68.659 127.973 66.195 118.776 56.998 116.312"/>
            </g>
            <g>
              <polygon class="cls-7" points="72.878 112.092 66.146 118.825 68.61 128.022 77.807 130.486 84.539 123.753 82.075 114.557 72.878 112.092"/>
              <polygon class="cls-8" points="88.78 107.851 82.048 114.584 84.512 123.781 93.709 126.245 100.441 119.512 97.977 110.316 88.78 107.851"/>
            </g>
            <g>
              <polygon class="cls-7" points="104.661 103.632 97.928 110.365 100.392 119.561 109.589 122.026 116.322 115.293 113.857 106.096 104.661 103.632"/>
              <polygon class="cls-8" points="120.563 99.391 113.83 106.124 116.294 115.32 125.491 117.785 132.224 111.052 129.759 101.855 120.563 99.391"/>
            </g>
            <g>
              <polygon class="cls-7" points="136.443 95.172 129.71 101.904 132.175 111.101 141.371 113.565 148.104 106.833 145.64 97.636 136.443 95.172"/>
              <polygon class="cls-8" points="152.345 90.931 145.612 97.663 148.077 106.86 157.273 109.324 164.006 102.592 161.542 93.395 152.345 90.931"/>
            </g>
            <g>
              <polygon class="cls-7" points="168.225 86.711 161.493 93.444 163.957 102.641 173.154 105.105 179.886 98.372 177.422 89.176 168.225 86.711"/>
              <polygon class="cls-8" points="184.127 82.47 177.395 89.203 179.859 98.4 189.056 100.864 195.788 94.131 193.324 84.935 184.127 82.47"/>
            </g>
            <g>
              <polygon class="cls-7" points="200.008 78.251 193.275 84.984 195.739 94.18 204.936 96.645 211.669 89.912 209.204 80.715 200.008 78.251"/>
              <polygon class="cls-8" points="215.91 74.01 209.177 80.743 211.641 89.939 220.838 92.404 227.571 85.671 225.106 76.474 215.91 74.01"/>
            </g>
            <g>
              <polygon class="cls-7" points="231.79 69.791 225.058 76.523 227.522 85.72 236.719 88.184 243.451 81.452 240.987 72.255 231.79 69.791"/>
              <polygon class="cls-8" points="247.692 65.55 240.959 72.282 243.424 81.479 252.621 83.943 259.353 77.211 256.889 68.014 247.692 65.55"/>
            </g>
          </g>
        </g>
        <g>
          <g>
            <polygon class="cls-7" points="-9.784 151.866 -16.516 158.599 -14.052 167.795 -4.855 170.26 1.877 163.527 -0.587 154.33 -9.784 151.866"/>
            <polygon class="cls-8" points="6.118 147.625 -0.614 154.358 1.85 163.554 11.047 166.019 17.779 159.286 15.315 150.089 6.118 147.625"/>
          </g>
          <g>
            <polygon class="cls-7" points="21.999 143.406 15.266 150.138 17.73 159.335 26.927 161.799 33.66 155.067 31.195 145.87 21.999 143.406"/>
            <polygon class="cls-8" points="37.9 139.165 31.168 145.897 33.632 155.094 42.829 157.558 49.561 150.826 47.097 141.629 37.9 139.165"/>
          </g>
          <g>
            <polygon class="cls-7" points="53.781 134.945 47.048 141.678 49.513 150.875 58.709 153.339 65.442 146.606 62.978 137.41 53.781 134.945"/>
            <polygon class="cls-8" points="69.683 130.704 62.95 137.437 65.415 146.634 74.611 149.098 81.344 142.365 78.88 133.169 69.683 130.704"/>
          </g>
          <g>
            <polygon class="cls-7" points="85.563 126.485 78.831 133.218 81.295 142.414 90.492 144.879 97.224 138.146 94.76 128.949 85.563 126.485"/>
            <polygon class="cls-8" points="101.465 122.244 94.733 128.977 97.197 138.173 106.394 140.638 113.126 133.905 110.662 124.708 101.465 122.244"/>
          </g>
          <g>
            <polygon class="cls-7" points="117.346 118.025 110.613 124.757 113.077 133.954 122.274 136.418 129.007 129.686 126.542 120.489 117.346 118.025"/>
            <polygon class="cls-8" points="133.248 113.784 126.515 120.516 128.979 129.713 138.176 132.177 144.909 125.445 142.444 116.248 133.248 113.784"/>
          </g>
          <g>
            <polygon class="cls-7" points="149.128 109.564 142.395 116.297 144.86 125.494 154.056 127.958 160.789 121.225 158.325 112.029 149.128 109.564"/>
            <polygon class="cls-8" points="165.03 105.323 158.297 112.056 160.762 121.253 169.958 123.717 176.691 116.984 174.227 107.788 165.03 105.323"/>
          </g>
          <g>
            <polygon class="cls-7" points="180.91 101.104 174.178 107.837 176.642 117.033 185.839 119.498 192.571 112.765 190.107 103.568 180.91 101.104"/>
            <polygon class="cls-8" points="196.812 96.863 190.08 103.596 192.544 112.792 201.741 115.257 208.473 108.524 206.009 99.327 196.812 96.863"/>
          </g>
          <g>
            <polygon class="cls-7" points="212.693 92.644 205.96 99.376 208.424 108.573 217.621 111.037 224.354 104.305 221.889 95.108 212.693 92.644"/>
            <polygon class="cls-8" points="228.595 88.403 221.862 95.135 224.326 104.332 233.523 106.796 240.256 100.064 237.791 90.867 228.595 88.403"/>
          </g>
          <g>
            <polygon class="cls-7" points="244.475 84.183 237.743 90.916 240.207 100.113 249.404 102.577 256.136 95.844 253.672 86.648 244.475 84.183"/>
            <polygon class="cls-8" points="260.377 79.942 253.645 86.675 256.109 95.872 265.306 98.336 272.038 91.603 269.574 82.407 260.377 79.942"/>
          </g>
        </g>
        <g>
          <g>
            <polygon class="cls-7" points="2.244 167.309 -4.488 174.042 -2.024 183.239 7.173 185.703 13.905 178.971 11.441 169.774 2.244 167.309"/>
            <polygon class="cls-8" points="18.146 163.069 11.414 169.801 13.878 178.998 23.075 181.462 29.807 174.73 27.343 165.533 18.146 163.069"/>
          </g>
          <g>
            <polygon class="cls-7" points="34.027 158.849 27.294 165.582 29.759 174.778 38.955 177.243 45.688 170.51 43.224 161.313 34.027 158.849"/>
            <polygon class="cls-8" points="49.929 154.608 43.196 161.341 45.661 170.537 54.857 173.002 61.59 166.269 59.126 157.072 49.929 154.608"/>
          </g>
          <g>
            <polygon class="cls-7" points="65.809 150.389 59.077 157.121 61.541 166.318 70.738 168.782 77.47 162.05 75.006 152.853 65.809 150.389"/>
            <polygon class="cls-8" points="81.711 146.148 74.979 152.88 77.443 162.077 86.64 164.541 93.372 157.809 90.908 148.612 81.711 146.148"/>
          </g>
          <g>
            <polygon class="cls-7" points="97.592 141.928 90.859 148.661 93.323 157.858 102.52 160.322 109.253 153.589 106.788 144.393 97.592 141.928"/>
            <polygon class="cls-8" points="113.494 137.688 106.761 144.42 109.225 153.617 118.422 156.081 125.155 149.349 122.69 140.152 113.494 137.688"/>
          </g>
          <g>
            <polygon class="cls-7" points="129.374 133.468 122.641 140.201 125.106 149.397 134.302 151.862 141.035 145.129 138.571 135.932 129.374 133.468"/>
            <polygon class="cls-8" points="145.276 129.227 138.543 135.96 141.008 145.156 150.204 147.621 156.937 140.888 154.473 131.691 145.276 129.227"/>
          </g>
          <g>
            <polygon class="cls-7" points="161.156 125.008 154.424 131.74 156.888 140.937 166.085 143.401 172.817 136.669 170.353 127.472 161.156 125.008"/>
            <polygon class="cls-8" points="177.058 120.767 170.326 127.499 172.79 136.696 181.987 139.16 188.719 132.428 186.255 123.231 177.058 120.767"/>
          </g>
          <g>
            <polygon class="cls-7" points="192.939 116.547 186.206 123.28 188.67 132.477 197.867 134.941 204.6 128.208 202.135 119.012 192.939 116.547"/>
            <polygon class="cls-8" points="208.841 112.306 202.108 119.039 204.572 128.236 213.769 130.7 220.502 123.968 218.037 114.771 208.841 112.306"/>
          </g>
          <g>
            <polygon class="cls-7" points="224.721 108.087 217.989 114.82 220.453 124.016 229.65 126.481 236.382 119.748 233.918 110.551 224.721 108.087"/>
            <polygon class="cls-8" points="240.623 103.846 233.891 110.579 236.355 119.775 245.552 122.24 252.284 115.507 249.82 106.31 240.623 103.846"/>
          </g>
          <g>
            <polygon class="cls-7" points="256.503 99.627 249.771 106.359 252.235 115.556 261.432 118.02 268.164 111.288 265.7 102.091 256.503 99.627"/>
            <polygon class="cls-8" points="272.405 95.386 265.673 102.118 268.137 111.315 277.334 113.779 284.066 107.047 281.602 97.85 272.405 95.386"/>
          </g>
        </g>
        <g>
          <g>
            <polygon class="cls-8" points="-0.951 185.921 -7.683 192.654 -5.219 201.851 3.978 204.315 10.71 197.582 8.246 188.386 -0.951 185.921"/>
            <g>
              <polygon class="cls-7" points="14.93 181.702 8.197 188.435 10.661 197.631 19.858 200.096 26.591 193.363 24.126 184.166 14.93 181.702"/>
              <polygon class="cls-8" points="30.832 177.461 24.099 184.194 26.563 193.39 35.76 195.855 42.493 189.122 40.028 179.925 30.832 177.461"/>
            </g>
            <g>
              <polygon class="cls-7" points="46.712 173.242 39.979 179.974 42.444 189.171 51.64 191.635 58.373 184.903 55.909 175.706 46.712 173.242"/>
              <polygon class="cls-8" points="62.614 169.001 55.881 175.733 58.346 184.93 67.542 187.394 74.275 180.662 71.811 171.465 62.614 169.001"/>
            </g>
            <g>
              <polygon class="cls-7" points="78.494 164.781 71.762 171.514 74.226 180.711 83.423 183.175 90.155 176.442 87.691 167.246 78.494 164.781"/>
              <polygon class="cls-8" points="94.396 160.54 87.664 167.273 90.128 176.47 99.325 178.934 106.057 172.201 103.593 163.005 94.396 160.54"/>
            </g>
            <g>
              <polygon class="cls-7" points="110.277 156.321 103.544 163.054 106.008 172.25 115.205 174.715 121.938 167.982 119.473 158.785 110.277 156.321"/>
              <polygon class="cls-8" points="126.179 152.08 119.446 158.813 121.91 168.009 131.107 170.474 137.84 163.741 135.375 154.544 126.179 152.08"/>
            </g>
            <g>
              <polygon class="cls-7" points="142.059 147.861 135.327 154.593 137.791 163.79 146.988 166.254 153.72 159.522 151.256 150.325 142.059 147.861"/>
              <polygon class="cls-8" points="157.961 143.62 151.228 150.352 153.693 159.549 162.889 162.013 169.622 155.281 167.158 146.084 157.961 143.62"/>
            </g>
            <g>
              <polygon class="cls-7" points="173.841 139.4 167.109 146.133 169.573 155.33 178.77 157.794 185.502 151.061 183.038 141.865 173.841 139.4"/>
              <polygon class="cls-8" points="189.743 135.159 183.011 141.892 185.475 151.089 194.672 153.553 201.404 146.82 198.94 137.624 189.743 135.159"/>
            </g>
            <g>
              <polygon class="cls-7" points="205.624 130.94 198.891 137.673 201.356 146.869 210.552 149.334 217.285 142.601 214.82 133.404 205.624 130.94"/>
              <polygon class="cls-8" points="221.526 126.699 214.793 133.432 217.257 142.628 226.454 145.093 233.187 138.36 230.722 129.163 221.526 126.699"/>
            </g>
            <g>
              <polygon class="cls-7" points="237.406 122.48 230.674 129.212 233.138 138.409 242.335 140.873 249.067 134.141 246.603 124.944 237.406 122.48"/>
              <polygon class="cls-8" points="253.308 118.239 246.576 124.971 249.04 134.168 258.237 136.632 264.969 129.9 262.505 120.703 253.308 118.239"/>
            </g>
            <g>
              <polygon class="cls-7" points="269.188 114.019 262.456 120.752 264.92 129.949 274.117 132.413 280.849 125.68 278.385 116.484 269.188 114.019"/>
              <polygon class="cls-8" points="285.09 109.778 278.358 116.511 280.822 125.708 290.019 128.172 296.751 121.439 294.287 112.243 285.09 109.778"/>
            </g>
          </g>
          <g>
            <g>
              <polygon class="cls-7" points="-4.824 205.606 -11.557 212.338 -9.093 221.535 0.104 223.999 6.837 217.267 4.372 208.07 -4.824 205.606"/>
              <polygon class="cls-8" points="11.077 201.365 4.345 208.097 6.809 217.294 16.006 219.758 22.738 213.026 20.274 203.829 11.077 201.365"/>
            </g>
            <g>
              <polygon class="cls-7" points="26.958 197.146 20.225 203.878 22.69 213.075 31.886 215.539 38.619 208.807 36.155 199.61 26.958 197.146"/>
              <polygon class="cls-8" points="42.86 192.905 36.127 199.637 38.592 208.834 47.788 211.298 54.521 204.566 52.057 195.369 42.86 192.905"/>
            </g>
            <g>
              <polygon class="cls-7" points="58.74 188.685 52.008 195.418 54.472 204.614 63.669 207.079 70.401 200.346 67.937 191.149 58.74 188.685"/>
              <polygon class="cls-8" points="74.642 184.444 67.91 191.177 70.374 200.373 79.571 202.838 86.303 196.105 83.839 186.908 74.642 184.444"/>
            </g>
            <g>
              <polygon class="cls-7" points="90.523 180.225 83.79 186.957 86.254 196.154 95.451 198.618 102.184 191.886 99.719 182.689 90.523 180.225"/>
              <polygon class="cls-8" points="106.425 175.984 99.692 182.716 102.156 191.913 111.353 194.377 118.086 187.645 115.621 178.448 106.425 175.984"/>
            </g>
            <g>
              <polygon class="cls-7" points="122.305 171.765 115.572 178.497 118.037 187.694 127.233 190.158 133.966 183.426 131.502 174.229 122.305 171.765"/>
              <polygon class="cls-8" points="138.207 167.524 131.474 174.256 133.939 183.453 143.135 185.917 149.868 179.185 147.404 169.988 138.207 167.524"/>
            </g>
            <g>
              <polygon class="cls-7" points="154.087 163.304 147.355 170.037 149.819 179.233 159.016 181.698 165.748 174.965 163.284 165.768 154.087 163.304"/>
              <polygon class="cls-8" points="169.989 159.063 163.257 165.796 165.721 174.992 174.918 177.457 181.65 170.724 179.186 161.527 169.989 159.063"/>
            </g>
            <g>
              <polygon class="cls-7" points="185.87 154.844 179.137 161.576 181.601 170.773 190.798 173.237 197.531 166.505 195.066 157.308 185.87 154.844"/>
              <polygon class="cls-8" points="201.772 150.603 195.039 157.335 197.503 166.532 206.7 168.996 213.433 162.264 210.968 153.067 201.772 150.603"/>
            </g>
            <g>
              <polygon class="cls-7" points="217.652 146.383 210.92 153.116 213.384 162.313 222.581 164.777 229.313 158.044 226.849 148.848 217.652 146.383"/>
              <polygon class="cls-8" points="233.554 142.143 226.822 148.875 229.286 158.072 238.483 160.536 245.215 153.804 242.751 144.607 233.554 142.143"/>
            </g>
            <g>
              <polygon class="cls-7" points="249.434 137.923 242.702 144.656 245.166 153.852 254.363 156.317 261.095 149.584 258.631 140.387 249.434 137.923"/>
              <polygon class="cls-8" points="265.336 133.682 258.604 140.415 261.068 149.611 270.265 152.076 276.997 145.343 274.533 136.146 265.336 133.682"/>
            </g>
            <g>
              <polygon class="cls-7" points="281.217 129.463 274.484 136.195 276.949 145.392 286.145 147.856 292.878 141.124 290.414 131.927 281.217 129.463"/>
              <polygon class="cls-8" points="297.119 125.222 290.386 131.954 292.851 141.151 302.047 143.615 308.78 136.883 306.316 127.686 297.119 125.222"/>
            </g>
          </g>
        </g>
        <g>
          <g>
            <polygon class="cls-7" points="7.861 219.998 1.128 226.731 3.592 235.928 12.789 238.392 19.522 231.659 17.057 222.463 7.861 219.998"/>
            <polygon class="cls-8" points="23.763 215.758 17.03 222.49 19.494 231.687 28.691 234.151 35.424 227.419 32.959 218.222 23.763 215.758"/>
          </g>
          <g>
            <polygon class="cls-7" points="39.643 211.538 32.91 218.271 35.375 227.467 44.571 229.932 51.304 223.199 48.84 214.002 39.643 211.538"/>
            <polygon class="cls-8" points="55.545 207.297 48.812 214.03 51.277 223.226 60.473 225.691 67.206 218.958 64.742 209.761 55.545 207.297"/>
          </g>
          <g>
            <polygon class="cls-7" points="71.425 203.078 64.693 209.81 67.157 219.007 76.354 221.471 83.086 214.739 80.622 205.542 71.425 203.078"/>
            <polygon class="cls-8" points="87.327 198.837 80.595 205.569 83.059 214.766 92.256 217.23 98.988 210.498 96.524 201.301 87.327 198.837"/>
          </g>
          <g>
            <polygon class="cls-7" points="103.208 194.617 96.475 201.35 98.939 210.547 108.136 213.011 114.869 206.278 112.404 197.082 103.208 194.617"/>
            <polygon class="cls-8" points="119.11 190.376 112.377 197.109 114.841 206.306 124.038 208.77 130.771 202.038 128.306 192.841 119.11 190.376"/>
          </g>
          <g>
            <polygon class="cls-7" points="134.99 186.157 128.258 192.89 130.722 202.086 139.919 204.551 146.651 197.818 144.187 188.621 134.99 186.157"/>
            <polygon class="cls-8" points="150.892 181.916 144.16 188.649 146.624 197.845 155.821 200.31 162.553 193.577 160.089 184.38 150.892 181.916"/>
          </g>
          <g>
            <polygon class="cls-7" points="166.772 177.697 160.04 184.429 162.504 193.626 171.701 196.09 178.433 189.358 175.969 180.161 166.772 177.697"/>
            <polygon class="cls-8" points="182.674 173.456 175.942 180.188 178.406 189.385 187.603 191.849 194.335 185.117 191.871 175.92 182.674 173.456"/>
          </g>
          <g>
            <polygon class="cls-7" points="198.555 169.236 191.822 175.969 194.287 185.166 203.483 187.63 210.216 180.897 207.752 171.701 198.555 169.236"/>
            <polygon class="cls-8" points="214.457 164.995 207.724 171.728 210.189 180.925 219.385 183.389 226.118 176.656 223.653 167.46 214.457 164.995"/>
          </g>
          <g>
            <polygon class="cls-7" points="230.337 160.776 223.605 167.509 226.069 176.705 235.266 179.17 241.998 172.437 239.534 163.24 230.337 160.776"/>
            <polygon class="cls-8" points="246.239 156.535 239.507 163.268 241.971 172.464 251.168 174.929 257.9 168.196 255.436 158.999 246.239 156.535"/>
          </g>
          <g>
            <polygon class="cls-7" points="262.119 152.316 255.387 159.048 257.851 168.245 267.048 170.709 273.781 163.977 271.316 154.78 262.119 152.316"/>
            <polygon class="cls-8" points="278.021 148.075 271.289 154.807 273.753 164.004 282.95 166.468 289.682 159.736 287.218 150.539 278.021 148.075"/>
          </g>
          <polygon class="cls-7" points="293.902 143.855 287.169 150.588 289.634 159.785 298.83 162.249 305.563 155.516 303.099 146.32 293.902 143.855"/>
        </g>
        <g>
          <g>
            <polygon class="cls-7" points="19.889 235.442 13.156 242.174 15.621 251.371 24.817 253.835 31.55 247.103 29.086 237.906 19.889 235.442"/>
            <polygon class="cls-8" points="35.791 231.201 29.058 237.933 31.523 247.13 40.719 249.594 47.452 242.862 44.988 233.665 35.791 231.201"/>
          </g>
          <g>
            <polygon class="cls-7" points="51.671 226.982 44.939 233.714 47.403 242.911 56.6 245.375 63.332 238.643 60.868 229.446 51.671 226.982"/>
            <polygon class="cls-8" points="67.573 222.741 60.841 229.473 63.305 238.67 72.502 241.134 79.234 234.402 76.77 225.205 67.573 222.741"/>
          </g>
          <g>
            <polygon class="cls-7" points="83.454 218.521 76.721 225.254 79.185 234.45 88.382 236.915 95.115 230.182 92.65 220.985 83.454 218.521"/>
            <polygon class="cls-8" points="99.356 214.28 92.623 221.013 95.087 230.209 104.284 232.674 111.017 225.941 108.552 216.745 99.356 214.28"/>
          </g>
          <g>
            <polygon class="cls-7" points="115.236 210.061 108.504 216.793 110.968 225.99 120.165 228.454 126.897 221.722 124.433 212.525 115.236 210.061"/>
            <polygon class="cls-8" points="131.138 205.82 124.405 212.552 126.87 221.749 136.066 224.213 142.799 217.481 140.335 208.284 131.138 205.82"/>
          </g>
          <g>
            <polygon class="cls-7" points="147.018 201.601 140.286 208.333 142.75 217.53 151.947 219.994 158.679 213.262 156.215 204.065 147.018 201.601"/>
            <polygon class="cls-8" points="162.92 197.36 156.188 204.092 158.652 213.289 167.849 215.753 174.581 209.021 172.117 199.824 162.92 197.36"/>
          </g>
          <g>
            <polygon class="cls-7" points="178.801 193.14 172.068 199.873 174.533 209.069 183.729 211.534 190.462 204.801 187.997 195.604 178.801 193.14"/>
            <polygon class="cls-8" points="194.703 188.899 187.97 195.632 190.434 204.828 199.631 207.293 206.364 200.56 203.899 191.363 194.703 188.899"/>
          </g>
          <g>
            <polygon class="cls-7" points="210.583 184.68 203.851 191.412 206.315 200.609 215.512 203.073 222.244 196.341 219.78 187.144 210.583 184.68"/>
            <polygon class="cls-8" points="226.485 180.439 219.753 187.171 222.217 196.368 231.414 198.832 238.146 192.1 235.682 182.903 226.485 180.439"/>
          </g>
          <g>
            <polygon class="cls-7" points="242.365 176.22 235.633 182.952 238.097 192.149 247.294 194.613 254.026 187.881 251.562 178.684 242.365 176.22"/>
            <polygon class="cls-8" points="258.267 171.979 251.535 178.711 253.999 187.908 263.196 190.372 269.928 183.64 267.464 174.443 258.267 171.979"/>
          </g>
          <g>
            <polygon class="cls-7" points="274.148 167.759 267.415 174.492 269.88 183.688 279.076 186.153 285.809 179.42 283.345 170.223 274.148 167.759"/>
            <polygon class="cls-8" points="290.05 163.518 283.317 170.251 285.782 179.447 294.978 181.912 301.711 175.179 299.247 165.982 290.05 163.518"/>
          </g>
          <polygon class="cls-7" points="305.93 159.299 299.198 166.031 301.662 175.228 310.859 177.692 317.591 170.96 315.127 161.763 305.93 159.299"/>
        </g>
        <g>
          <g>
            <g>
              <polygon class="cls-7" points="32.574 249.835 25.841 256.567 28.306 265.764 37.502 268.228 44.235 261.496 41.771 252.299 32.574 249.835"/>
              <polygon class="cls-8" points="48.476 245.594 41.743 252.326 44.208 261.523 53.404 263.987 60.137 257.255 57.673 248.058 48.476 245.594"/>
            </g>
            <g>
              <polygon class="cls-7" points="64.356 241.374 57.624 248.107 60.088 257.303 69.285 259.768 76.017 253.035 73.553 243.838 64.356 241.374"/>
              <polygon class="cls-8" points="80.258 237.133 73.526 243.866 75.99 253.062 85.187 255.527 91.919 248.794 89.455 239.597 80.258 237.133"/>
            </g>
            <g>
              <polygon class="cls-7" points="96.139 232.914 89.406 239.646 91.87 248.843 101.067 251.307 107.8 244.575 105.335 235.378 96.139 232.914"/>
              <polygon class="cls-8" points="112.041 228.673 105.308 235.405 107.772 244.602 116.969 247.066 123.702 240.334 121.237 231.137 112.041 228.673"/>
            </g>
            <g>
              <polygon class="cls-7" points="127.921 224.453 121.189 231.186 123.653 240.383 132.85 242.847 139.582 236.114 137.118 226.918 127.921 224.453"/>
              <polygon class="cls-8" points="143.823 220.213 137.091 226.945 139.555 236.142 148.752 238.606 155.484 231.874 153.02 222.677 143.823 220.213"/>
            </g>
            <g>
              <polygon class="cls-7" points="159.703 215.993 152.971 222.726 155.435 231.922 164.632 234.387 171.364 227.654 168.9 218.457 159.703 215.993"/>
              <polygon class="cls-8" points="175.605 211.752 168.873 218.485 171.337 227.681 180.534 230.146 187.266 223.413 184.802 214.216 175.605 211.752"/>
            </g>
            <g>
              <polygon class="cls-7" points="191.486 207.533 184.753 214.265 187.218 223.462 196.414 225.926 203.147 219.194 200.683 209.997 191.486 207.533"/>
              <polygon class="cls-8" points="207.388 203.292 200.655 210.024 203.12 219.221 212.316 221.685 219.049 214.953 216.585 205.756 207.388 203.292"/>
            </g>
            <g>
              <polygon class="cls-7" points="223.268 199.072 216.536 205.805 219 215.002 228.197 217.466 234.929 210.733 232.465 201.537 223.268 199.072"/>
              <polygon class="cls-8" points="239.17 194.831 232.438 201.564 234.902 210.761 244.099 213.225 250.831 206.493 248.367 197.296 239.17 194.831"/>
            </g>
            <g>
              <polygon class="cls-7" points="255.051 190.612 248.318 197.345 250.782 206.541 259.979 209.006 266.712 202.273 264.247 193.076 255.051 190.612"/>
              <polygon class="cls-8" points="270.952 186.371 264.22 193.104 266.684 202.3 275.881 204.765 282.614 198.032 280.149 188.835 270.952 186.371"/>
            </g>
            <polygon class="cls-7" points="286.833 182.152 280.1 188.884 282.565 198.081 291.761 200.545 298.494 193.813 296.03 184.616 286.833 182.152"/>
          </g>
          <g>
            <g>
              <polygon class="cls-7" points="44.602 265.278 37.87 272.01 40.334 281.207 49.531 283.671 56.263 276.939 53.799 267.742 44.602 265.278"/>
              <polygon class="cls-8" points="60.504 261.037 53.772 267.769 56.236 276.966 65.433 279.43 72.165 272.698 69.701 263.501 60.504 261.037"/>
            </g>
            <g>
              <polygon class="cls-7" points="76.385 256.818 69.652 263.55 72.116 272.747 81.313 275.211 88.046 268.479 85.581 259.282 76.385 256.818"/>
              <polygon class="cls-8" points="92.287 252.577 85.554 259.309 88.018 268.506 97.215 270.97 103.948 264.238 101.483 255.041 92.287 252.577"/>
            </g>
            <g>
              <polygon class="cls-7" points="108.167 248.357 101.435 255.09 103.899 264.286 113.096 266.751 119.828 260.018 117.364 250.822 108.167 248.357"/>
              <polygon class="cls-8" points="124.069 244.116 117.337 250.849 119.801 260.046 128.998 262.51 135.73 255.777 133.266 246.581 124.069 244.116"/>
            </g>
            <g>
              <polygon class="cls-7" points="139.949 239.897 133.217 246.629 135.681 255.826 144.878 258.29 151.61 251.558 149.146 242.361 139.949 239.897"/>
              <polygon class="cls-8" points="155.851 235.656 149.119 242.388 151.583 251.585 160.78 254.049 167.512 247.317 165.048 238.12 155.851 235.656"/>
            </g>
            <g>
              <polygon class="cls-7" points="171.732 231.437 164.999 238.169 167.464 247.366 176.66 249.83 183.393 243.098 180.929 233.901 171.732 231.437"/>
              <polygon class="cls-8" points="187.634 227.196 180.901 233.928 183.366 243.125 192.562 245.589 199.295 238.857 196.83 229.66 187.634 227.196"/>
            </g>
            <g>
              <polygon class="cls-7" points="203.514 222.976 196.782 229.709 199.246 238.905 208.443 241.37 215.175 234.637 212.711 225.44 203.514 222.976"/>
              <polygon class="cls-8" points="219.416 218.735 212.684 225.468 215.148 234.665 224.345 237.129 231.077 230.396 228.613 221.2 219.416 218.735"/>
            </g>
            <g>
              <polygon class="cls-7" points="235.296 214.516 228.564 221.248 231.028 230.445 240.225 232.909 246.958 226.177 244.493 216.98 235.296 214.516"/>
              <polygon class="cls-8" points="251.198 210.275 244.466 217.007 246.93 226.204 256.127 228.668 262.859 221.936 260.395 212.739 251.198 210.275"/>
            </g>
            <polygon class="cls-7" points="267.079 206.056 260.346 212.788 262.811 221.985 272.007 224.449 278.74 217.717 276.276 208.52 267.079 206.056"/>
          </g>
        </g>
        <g>
          <g>
            <polygon class="cls-7" points="57.287 279.671 50.555 286.403 53.019 295.6 62.216 298.064 68.948 291.332 66.484 282.135 57.287 279.671"/>
            <polygon class="cls-8" points="73.189 275.43 66.457 282.162 68.921 291.359 78.118 293.823 84.85 287.091 82.386 277.894 73.189 275.43"/>
          </g>
          <g>
            <polygon class="cls-7" points="89.07 271.21 82.337 277.943 84.801 287.139 93.998 289.604 100.731 282.871 98.266 273.674 89.07 271.21"/>
            <polygon class="cls-8" points="104.972 266.969 98.239 273.702 100.703 282.898 109.9 285.363 116.633 278.63 114.168 269.433 104.972 266.969"/>
          </g>
          <g>
            <polygon class="cls-7" points="120.852 262.75 114.12 269.482 116.584 278.679 125.781 281.143 132.513 274.411 130.049 265.214 120.852 262.75"/>
            <polygon class="cls-8" points="136.754 258.509 130.022 265.241 132.486 274.438 141.683 276.902 148.415 270.17 145.951 260.973 136.754 258.509"/>
          </g>
          <g>
            <polygon class="cls-7" points="152.634 254.29 145.902 261.022 148.366 270.219 157.563 272.683 164.295 265.951 161.831 256.754 152.634 254.29"/>
            <polygon class="cls-8" points="168.536 250.049 161.804 256.781 164.268 265.978 173.465 268.442 180.197 261.71 177.733 252.513 168.536 250.049"/>
          </g>
          <g>
            <polygon class="cls-7" points="184.417 245.829 177.684 252.562 180.149 261.758 189.345 264.223 196.078 257.49 193.614 248.293 184.417 245.829"/>
            <polygon class="cls-8" points="200.319 241.588 193.586 248.321 196.051 257.517 205.247 259.982 211.98 253.249 209.516 244.052 200.319 241.588"/>
          </g>
          <g>
            <polygon class="cls-7" points="216.199 237.369 209.467 244.101 211.931 253.298 221.128 255.762 227.86 249.03 225.396 239.833 216.199 237.369"/>
            <polygon class="cls-8" points="232.101 233.128 225.369 239.86 227.833 249.057 237.03 251.521 243.762 244.789 241.298 235.592 232.101 233.128"/>
          </g>
        </g>
        <g>
          <g>
            <polygon class="cls-7" points="69.316 295.114 62.583 301.846 65.047 311.043 74.244 313.507 80.977 306.775 78.512 297.578 69.316 295.114"/>
            <polygon class="cls-8" points="85.218 290.873 78.485 297.605 80.949 306.802 90.146 309.266 96.879 302.534 94.414 293.337 85.218 290.873"/>
          </g>
          <g>
            <polygon class="cls-7" points="101.098 286.654 94.366 293.386 96.83 302.583 106.027 305.047 112.759 298.315 110.295 289.118 101.098 286.654"/>
            <polygon class="cls-8" points="117 282.413 110.268 289.145 112.732 298.342 121.929 300.806 128.661 294.074 126.197 284.877 117 282.413"/>
          </g>
          <g>
            <polygon class="cls-7" points="132.88 278.193 126.148 284.926 128.612 294.123 137.809 296.587 144.541 289.854 142.077 280.658 132.88 278.193"/>
            <polygon class="cls-8" points="148.782 273.952 142.05 280.685 144.514 289.882 153.711 292.346 160.443 285.613 157.979 276.417 148.782 273.952"/>
          </g>
          <g>
            <polygon class="cls-7" points="164.663 269.733 157.93 276.465 160.395 285.662 169.591 288.126 176.324 281.394 173.86 272.197 164.663 269.733"/>
            <polygon class="cls-8" points="180.565 265.492 173.832 272.224 176.297 281.421 185.493 283.885 192.226 277.153 189.762 267.956 180.565 265.492"/>
          </g>
          <g>
            <polygon class="cls-7" points="196.445 261.273 189.713 268.005 192.177 277.202 201.374 279.666 208.106 272.934 205.642 263.737 196.445 261.273"/>
            <polygon class="cls-8" points="212.347 257.032 205.615 263.764 208.079 272.961 217.276 275.425 224.008 268.693 221.544 259.496 212.347 257.032"/>
          </g>
        </g>
        <g>
          <polygon class="cls-8" points="129.685 296.805 122.953 303.538 125.417 312.734 134.614 315.199 141.346 308.466 138.882 299.27 129.685 296.805"/>
          <g>
            <polygon class="cls-7" points="145.565 292.586 138.833 299.318 141.297 308.515 150.494 310.979 157.226 304.247 154.762 295.05 145.565 292.586"/>
            <polygon class="cls-8" points="161.467 288.345 154.735 295.077 157.199 304.274 166.396 306.738 173.128 300.006 170.664 290.809 161.467 288.345"/>
          </g>
          <g>
            <polygon class="cls-7" points="177.348 284.126 170.615 290.858 173.08 300.055 182.276 302.519 189.009 295.787 186.545 286.59 177.348 284.126"/>
            <polygon class="cls-8" points="193.25 279.885 186.517 286.617 188.982 295.814 198.178 298.278 204.911 291.546 202.447 282.349 193.25 279.885"/>
          </g>
        </g>
      </g>
    </g>
  </g>
</svg>
